<svg width="1618" height="262" viewBox="0 0 1618 262" fill="none" xmlns="http://www.w3.org/2000/svg">
  <g clip-path="url(#clip0_5335_12847)">
    <path fill-rule="evenodd" clip-rule="evenodd"
      d="M1237.6 23.0797C1237.6 35.1197 1247.68 45.1997 1259.72 45.1997C1272.04 45.1997 1282.12 35.1197 1282.12 23.0797C1282.12 11.0397 1272.04 0.679688 1259.72 0.679688C1247.68 0.679688 1237.6 11.0397 1237.6 23.0797ZM1241.8 61.9997V202H1277.92V61.9997H1241.8ZM1418.22 62.0001H1453.5V195.28C1453.5 241.2 1417.38 261.92 1380.42 261.92C1350.46 261.92 1326.38 250.44 1314.06 227.76L1344.86 210.12C1350.74 221.04 1359.98 229.72 1381.54 229.72C1404.22 229.72 1418.22 217.4 1418.22 195.28V180.16C1408.42 193.32 1393.3 201.44 1373.42 201.44C1333.66 201.44 1303.7 169.24 1303.7 129.76C1303.7 90.5601 1333.66 58.0801 1373.42 58.0801C1393.3 58.0801 1408.42 66.2001 1418.22 79.3601V62.0001ZM1379.02 168.12C1401.7 168.12 1418.22 152.16 1418.22 129.76C1418.22 107.64 1401.7 91.6801 1379.02 91.6801C1356.34 91.6801 1339.82 107.64 1339.82 129.76C1339.82 152.16 1356.34 168.12 1379.02 168.12ZM1564.09 58.0801C1593.77 58.0801 1617.01 78.8001 1617.01 116.04V202H1580.89V120.52C1580.89 101.48 1569.41 91.6801 1553.17 91.6801C1535.53 91.6801 1522.37 102.04 1522.37 126.4V202H1486.25V62.0001H1522.37V77.6801C1530.77 65.0801 1545.33 58.0801 1564.09 58.0801ZM1146.33 101.76C1146.33 109.801 1157.21 112.782 1170.53 116.43C1191.52 122.182 1218.57 129.593 1218.57 161.12C1218.57 191.36 1192.25 205.92 1162.29 205.92C1134.29 205.92 1113.57 194.16 1103.49 172.6L1134.85 154.96C1138.77 166.44 1148.29 173.16 1162.29 173.16C1173.77 173.16 1181.61 169.24 1181.61 161.12C1181.61 153.113 1170.53 149.961 1157.04 146.127C1136.1 140.174 1109.37 132.575 1109.37 102.6C1109.37 74.0401 1133.73 58.0801 1162.57 58.0801C1185.25 58.0801 1204.85 68.4401 1215.77 87.7601L1184.97 104.56C1180.77 95.6001 1172.93 90.2801 1162.57 90.2801C1153.61 90.2801 1146.33 94.2001 1146.33 101.76ZM1025.79 173.16C1006.75 173.16 991.344 165.32 986.304 146.84H1091.87C1092.71 142.08 1093.27 137.32 1093.27 132C1093.27 90.8401 1063.87 58.0801 1022.43 58.0801C978.464 58.0801 948.504 90.2801 948.504 132C948.504 173.72 978.184 205.92 1025.23 205.92C1052.11 205.92 1073.11 195 1086.27 175.96L1057.15 159.16C1050.99 167.28 1039.79 173.16 1025.79 173.16ZM1057.15 118.84H985.744C989.944 100.92 1003.11 90.5601 1022.43 90.5601C1037.55 90.5601 1052.67 98.6801 1057.15 118.84ZM886.63 6H922.75V202H886.63V185.48C876.55 198.36 861.71 205.92 841.27 205.92C803.75 205.92 772.95 173.72 772.95 132C772.95 90.28 803.75 58.08 841.27 58.08C861.71 58.08 876.55 65.64 886.63 78.52V6ZM847.99 171.48C870.11 171.48 886.63 155.52 886.63 132C886.63 108.48 870.11 92.52 847.99 92.52C825.59 92.52 809.07 108.48 809.07 132C809.07 155.52 825.59 171.48 847.99 171.48ZM713.999 181.84C713.999 195 724.639 205.64 737.799 205.64C750.959 205.64 761.599 195 761.599 181.84C761.599 168.68 750.959 158.04 737.799 158.04C724.639 158.04 713.999 168.68 713.999 181.84ZM647.646 6H683.766V202H647.646V185.48C637.566 198.36 622.726 205.92 602.286 205.92C564.766 205.92 533.966 173.72 533.966 132C533.966 90.28 564.766 58.08 602.286 58.08C622.726 58.08 637.566 65.64 647.646 78.52V6ZM609.006 171.48C631.126 171.48 647.646 155.52 647.646 132C647.646 108.48 631.126 92.52 609.006 92.52C586.606 92.52 570.086 108.48 570.086 132C570.086 155.52 586.606 171.48 609.006 171.48ZM508.773 62.0001H472.653V78.5201C462.573 65.9201 447.453 58.0801 427.013 58.0801C389.773 58.0801 358.973 90.2801 358.973 132C358.973 173.72 389.773 205.92 427.013 205.92C447.453 205.92 462.573 198.08 472.653 185.48V202H508.773V62.0001ZM472.653 132C472.653 155.52 456.133 171.48 433.733 171.48C411.613 171.48 395.093 155.52 395.093 132C395.093 108.48 411.613 92.5201 433.733 92.5201C456.133 92.5201 472.653 108.48 472.653 132ZM358.067 202H316.347L286.107 159.44L255.587 202H213.867L265.107 130.6L216.107 62H257.827L286.107 101.48L314.387 62H355.827L306.827 130.32L358.067 202ZM209.518 62H171.158L147.358 148.24L121.878 62H87.7181L62.2381 147.96L38.4381 62H0.078125L44.5981 202H79.0381L104.798 117.16L130.558 202H164.998L209.518 62Z"
      fill="url(#paint0_linear_5335_12847)" />
  </g>
  <defs>
    <linearGradient id="paint0_linear_5335_12847" x1="0.078125" y1="132" x2="1617" y2="131"
      gradientUnits="userSpaceOnUse">
      <stop />
      <stop offset="1" stop-color="#666666" />
    </linearGradient>
    <clipPath id="clip0_5335_12847">
      <rect width="1618" height="262" fill="white" />
    </clipPath>
  </defs>
</svg>
  